<?xml version="1.0" encoding="utf-8"?>
<!-- Generator: Adobe Illustrator 18.1.1, SVG Export Plug-In . SVG Version: 6.00 Build 0)  -->
<svg version="1.1" id="Layer_1" xmlns="http://www.w3.org/2000/svg" xmlns:xlink="http://www.w3.org/1999/xlink" x="0px" y="0px"
	 viewBox="0 0 453 370.5" enable-background="new 0 0 453 370.5" xml:space="preserve">
<path fill="#CB2C31" d="M440.6,11.8c-0.4-0.8-1.5-0.9-2.5-0.9l-20.5,0c0,0-27.7,0-27.7,0c-1.6-0.1-2.4,0.3-3,1.5
	c-1.7,2.9-6.7,11.4-13.4,22.7h-49.1c7.5-13.1,12.1-21.2,12.2-21.4c0.6-1,0.3-1.7,0.2-2c-0.3-0.5-0.8-0.8-1.5-0.8h-50.7
	c-1.3-0.1-1.9,0.5-2.3,1.1v0c-0.1,0.1-5.5,9.5-13.3,23H71.5c-6.5,0-11.8,5.3-11.8,11.8v86.2c-13.1,0-21.5,0-21.5,0
	c-1.6,0-2.8,0.8-3.5,2.3c-0.4,0.7-10.5,18.6-17.2,30.3l-7,12.2c-0.2,0.4-0.5,0.9-0.5,1.4c0,0.3,0.1,0.5,0.2,0.8
	c0.3,0.5,0.9,0.8,1.7,0.8c0,0,20.7,0,47.7,0v124.1h66l26-45.1h19.7L125,341.3h-20.4l11.1-19.2h-56v24.3c0,6.5,5.3,11.8,11.8,11.8
	h323.3c6.5,0,11.8-5.3,11.8-11.8V277h-58.4c0,0-1.8-0.7-3.6,2.1l-6.7,12c0,0,16.5,0,24,0c8.6,0,10.3,5,4.1,16
	c-3.8,6.7-14.1,25.3-14.1,25.3s-3.3,8.9-14.5,8.9h-33.8v-16.8c0,0,20.4,0,23.4,0c2.9,0,8.6,0.2,10.8-3.9c2.3-4.1,7.1-12.6,7.1-12.6
	s-14.9,0-23.1,0s-9.9-7.2-7.1-12.2c2.8-5,12.9-22.7,15.8-27.7c2.9-5,4.8-8.5,14.5-8.5h61.7V72.7c18.8-32.7,33-57.4,33.3-58
	C440.6,13.5,441.1,12.6,440.6,11.8z M144.3,341.3c0,0,5.5-9.7,7.4-12.9c1.9-3.2,2.8-6.4-2.6-6.3c-1.6,0-8,0-8,0s7.1-13.2,9.3-17
	c4.4,0,11.2-0.3,12.5,3c1.2-2.1,28.2-48.1,28.2-48.1h19.3l-46.7,81.3H144.3z M171.7,341.3l47.5-81.3h18.9l-46.4,81.3H171.7z
	 M224.9,341.3c0,0,0-11.2,0-13.4c0-3.7-1.2-5.8-7.8-5.8c-4.7,0-8.4,0-9.6,0c0,0,8.2-14.4,9.6-17c3.4,0,6.4-0.3,7.4,2.1l0.1-14.7
	l16.3-28.1v52.5l33.8-56.9h20l-46.4,81.3H224.9z M297.6,341.3h-16.3c0,0,0-8.2,0-12.6c0-5.6-1.8-6.7-8.2-6.7c-4,0-7.7,0-8.9,0
	c0,0,8-14.4,9.6-17c4.7-0.1,5.7,0,7,2.2V294l16.7-29.6V341.3z"/>
<g>
	<path fill="#FFFFFF" d="M284,12.9l-0.1,0.2v0c-0.2,0.4-67.1,116.5-69.9,121.4l-0.3,0.5H38.2c-0.5,0-1.3,0.1-1.8,1.2
		c-0.3,0.6-8,14.2-17.3,30.5l-6.9,12.2c-0.1,0.1-0.1,0.2-0.1,0.3c0.1,0,175.6,0,175.6,0s-28.6,49.4-30.1,52.1c3,0,52,0,53.1,0
		c7.9-13.9,124-217.5,124.4-218.3c0,0,0,0,0,0c-0.4,0-50.5,0-50.5,0C284.1,12.8,284,12.9,284,12.9z"/>
	<path fill="#FFFFFF" d="M417.7,12.8l-27.8,0c-1,0-1.1,0.1-1.3,0.5c-7,11.8-67.9,114.9-75.8,129.2l-0.9,1.7l-0.8-1.8
		c-3.3-7.9-18.4-7.6-28.4-7.5c0,0-3.2,0-4.1,0c-4.3,7.2-20.4,37.3-24.1,44.2c3.5,0,12.2-0.1,20.2,0c5.2,0.1,7.6,2.6,8.8,4.8
		c0.9,1.6,1.3,3.6,1.3,5.6c0,2.7-0.8,5.5-2.3,8c-3.4,5.7-16,27.8-19.3,33.6c3,0,49.1,0,50.1,0c6.3-10.9,123.9-215.7,124.9-217.4
		c0.2-0.4,0.4-0.7,0.5-1c-0.2,0-0.4,0-0.7,0L417.7,12.8z"/>
</g>
<g>
	<path fill="#FFFFFF" d="M406.6,277h-58.4c0,0-1.8-0.7-3.6,2.1l-6.7,12c0,0,16.5,0,24,0c8.6,0,10.3,5,4.1,16
		c-3.8,6.7-14.1,25.3-14.1,25.3s-3.3,8.9-14.5,8.9h-33.8v-16.8c0,0,20.4,0,23.4,0c2.9,0,8.6,0.2,10.8-3.9c2.3-4.1,7.1-12.6,7.1-12.6
		s-14.9,0-23.1,0s-9.9-7.2-7.1-12.2c2.8-5,12.9-22.7,15.8-27.7c2.9-5,4.8-8.5,14.5-8.5h61.7V277z"/>
	<polygon fill="#FFFFFF" points="59.7,305.1 125.7,305.1 151.7,260 171.4,260 125,341.3 104.6,341.3 115.7,322.1 59.7,322.1 	"/>
	<path fill="#FFFFFF" d="M144.3,341.3c0,0,5.5-9.7,7.4-12.9c1.9-3.2,2.8-6.4-2.6-6.3c-1.6,0-8,0-8,0s7.1-13.2,9.3-17
		c4.4,0,11.2-0.3,12.5,3c1.2-2.1,28.2-48.1,28.2-48.1h19.3l-46.7,81.3H144.3z"/>
	<polygon fill="#FFFFFF" points="171.7,341.3 219.1,260 238.1,260 191.7,341.3 	"/>
	<path fill="#FFFFFF" d="M224.9,341.3c0,0,0-11.2,0-13.4c0-3.7-1.2-5.8-7.8-5.8c-4.7,0-8.4,0-9.6,0c0,0,8.2-14.4,9.6-17
		c3.4,0,6.4-0.3,7.4,2.1l0.1-14.7l16.3-28.1v52.5l33.8-56.9h20l-46.4,81.3H224.9z"/>
	<path fill="#FFFFFF" d="M297.6,341.3h-16.3c0,0,0-8.2,0-12.6c0-5.6-1.8-6.7-8.2-6.7c-4,0-7.7,0-8.9,0c0,0,8-14.4,9.6-17
		c4.7-0.1,5.7,0,7,2.2V294l16.7-29.6V341.3z"/>
</g>
</svg>
