<svg version="1.1" id="Text" xmlns="http://www.w3.org/2000/svg" xmlns:xlink="http://www.w3.org/1999/xlink" x="0px" y="0px" viewBox="0 0 371.9 108" style="enable-background:new 0 0 371.9 108;" xml:space="preserve">
<style type="text/css">
	.st0{fill:#AFB1CB;}
	.st1{enable-background:new    ;}
	.st2{fill:#3A549B;}
	.st3{fill:#717491;}
	.st4{fill:#F7A200;}
</style>
<g>
	<path class="st0" d="M187.4,42.8V69h-9.7V4.5h11c5.4,0,9.5,0.4,12.2,1.1c2.8,0.8,5.2,2.2,7.3,4.3c3.7,3.6,5.6,8.2,5.6,13.7   c0,5.9-2,10.6-5.9,14s-9.3,5.2-16,5.2H187.4L187.4,42.8z M187.4,33.7h3.6c8.9,0,13.4-3.4,13.4-10.3s-4.6-10-13.8-10h-3.2V33.7z"/>
	<path class="st0" d="M368.5,14.1l-7.9,4.7c-1.5-2.6-2.9-4.2-4.2-5c-1.4-0.9-3.2-1.3-5.4-1.3c-2.7,0-4.9,0.8-6.7,2.3   c-1.8,1.5-2.7,3.4-2.7,5.7c0,3.1,2.3,5.7,7,7.6l6.4,2.6c5.2,2.1,9,4.7,11.5,7.7c2.4,3,3.6,6.8,3.6,11.2c0,5.9-2,10.8-5.9,14.7   c-4,3.9-8.9,5.8-14.8,5.8c-5.6,0-10.2-1.7-13.9-5c-3.6-3.3-5.8-8-6.7-14l9.9-2.2c0.4,3.8,1.2,6.4,2.3,7.8c2,2.8,4.9,4.2,8.8,4.2   c3,0,5.5-1,7.5-3s3-4.6,3-7.7c0-1.2-0.2-2.4-0.5-3.4c-0.4-1-0.9-2-1.6-2.9s-1.7-1.7-2.9-2.5c-1.2-0.8-2.6-1.5-4.2-2.2l-6.2-2.6   c-8.8-3.7-13.2-9.2-13.2-16.4c0-4.8,1.9-8.9,5.5-12.1c3.7-3.3,8.3-4.9,13.8-4.9C358.5,3.2,364.3,6.8,368.5,14.1L368.5,14.1z"/>
	<polygon class="st0" points="272.5,4.5 261,41.5 261,41.4 247,1.9 246.9,1.9 246.9,1.9 232.9,41.4 232.9,41.6 232.9,41.5    221.3,4.5 211,4.5 232.9,71 232.9,71 232.9,71 246.9,29 261,71 261,70.8 261,71 282.8,4.5  "/>
	<path class="st0" d="M326.9,7.9v11.5c-5.6-4.7-11.4-7.1-17.4-7.1c-6.6,0-12.2,2.4-16.7,7.1c-4.6,4.7-6.8,10.5-6.8,17.4   s2.3,12.5,6.8,17.1s10.1,7,16.8,7c3.4,0,6.3-0.6,8.7-1.7c1.3-0.6,2.7-1.3,4.1-2.2c1.4-1,2.9-2.1,4.5-3.4v11.7   c-5.6,3.1-11.4,4.7-17.5,4.7c-9.2,0-17.1-3.2-23.6-9.6c-6.5-6.5-9.7-14.3-9.7-23.5c0-8.2,2.7-15.5,8.1-22   c6.7-7.9,15.3-11.8,25.9-11.8C316,3.3,321.5,4.8,326.9,7.9L326.9,7.9z"/>
</g>
<g class="st1">
	<path class="st2" d="M177.7,76.6h1.8c0.8,0,1.5,0.2,1.8,0.6c0.4,0.4,0.6,1.1,0.6,2.1c0,1.3-0.4,2.2-1.2,2.6c-0.4,0.2-1,0.3-1.7,0.3   v4.4h-1.3L177.7,76.6L177.7,76.6z M179,81c0.6,0,0.9-0.1,1.1-0.3c0.2-0.2,0.3-0.6,0.3-1.2s-0.1-1-0.3-1.3s-0.5-0.4-1-0.4H179V81z"/>
	<path class="st2" d="M183.4,76.6h1.8c0.7,0,1.3,0.2,1.6,0.5c0.4,0.4,0.7,1.1,0.7,2.1c0,0.7-0.1,1.3-0.4,1.7c-0.2,0.4-0.6,0.7-1,0.8   l1.8,4.8h-1.4l-1.8-4.9v4.9h-1.3L183.4,76.6L183.4,76.6z M184.8,81c0.5,0,0.9-0.1,1.1-0.4c0.2-0.2,0.3-0.6,0.3-1.2   c0-0.3,0-0.6-0.1-0.8s-0.1-0.4-0.2-0.5c-0.1-0.1-0.2-0.2-0.4-0.3c-0.2-0.1-0.3-0.1-0.5-0.1h-0.2L184.8,81L184.8,81z"/>
	<path class="st2" d="M189.5,76.6h1.3v9.9h-1.3V76.6z"/>
</g>
<g class="st1">
	<path class="st2" d="M192.9,76.6h1.2l1.3,4c0.4,1.1,0.7,2.3,1,3.6c-0.1-0.8-0.2-1.5-0.2-2.1c-0.1-0.6-0.1-1.2-0.1-1.8v-3.7h1.3v9.9   h-1.3l-1.5-4.5c-0.1-0.4-0.3-0.8-0.4-1.3c-0.1-0.4-0.2-0.9-0.3-1.4c0-0.1,0-0.1,0-0.2s0-0.2-0.1-0.3c0,0.1,0,0.2,0,0.3   c0,0.1,0,0.1,0,0.2l0.1,1l0.1,1.2c0,0.1,0,0.2,0,0.2c0,0.1,0,0.2,0,0.3l0.1,4.3h-1.3L192.9,76.6L192.9,76.6z"/>
</g>
<g class="st1">
	<path class="st2" d="M203.4,76.8V78c-0.3-0.2-0.6-0.2-0.9-0.2c-0.3,0-0.6,0.1-0.8,0.2c-0.2,0.2-0.4,0.4-0.6,0.7   c-0.1,0.3-0.3,0.7-0.3,1.2c-0.1,0.5-0.1,1.1-0.1,1.8c0,2.4,0.6,3.7,1.9,3.7c0.2,0,0.5-0.1,0.8-0.2v1.2c-0.3,0.2-0.7,0.3-1.1,0.3   c-2,0-3-1.6-3-4.9c0-1.8,0.2-3.1,0.7-4s1.2-1.3,2.2-1.3C202.7,76.5,203,76.6,203.4,76.8z"/>
	<path class="st2" d="M205,76.6h3.6v1.1h-2.2v3.1h2V82h-2v3.4h2.2v1.1H205V76.6z"/>
	<path class="st2" d="M212.8,76.6h1.3l0.7,4.6l0.1,0.7c0.1,0.4,0.1,0.7,0.1,1l0.1,0.8v0.1c0,0.1,0,0.1,0,0.2v-0.3   c0.1-0.6,0.1-1.1,0.2-1.5c0.1-0.5,0.1-0.9,0.2-1.3l0.7-4.3h1l0.7,4.2c0.1,0.6,0.2,1.2,0.2,1.7c0.1,0.5,0.1,1,0.2,1.5   c0-0.5,0.1-1,0.1-1.5c0.1-0.5,0.1-0.9,0.2-1.4l0.1-0.7l0.6-3.9h1.3l-1.8,9.9h-1l-0.7-4.3c0,0,0-0.1,0-0.2s0-0.3-0.1-0.5l-0.1-1   c0-0.1,0-0.2,0-0.3c0-0.2,0-0.3-0.1-0.6v-0.4c0,0.1,0,0.2,0,0.3c0,0.1,0,0.1,0,0.2c0,0.3,0,0.5-0.1,0.7c0,0.2,0,0.3,0,0.3l-0.1,0.9   c0,0.2-0.1,0.4-0.1,0.5s0,0.2,0,0.2l-0.7,4.3h-1.1L212.8,76.6z"/>
	<path class="st2" d="M221.9,76.6h1.3v9.9h-1.3V76.6z"/>
	<path class="st2" d="M225.3,76.6h1.3v8.8h2.2v1.1h-3.5V76.6z"/>
	<path class="st2" d="M230.1,76.6h1.3v8.8h2.2v1.1h-3.5V76.6z"/>
	<path class="st2" d="M235,76.6h1.3v9.9H235V76.6z"/>
	<path class="st2" d="M239.8,76.6h1l2.1,9.9h-1.3l-0.4-1.9h-2l-0.4,1.9h-1.3L239.8,76.6z M241.1,83.6l-0.3-1.6   c-0.2-1.1-0.4-2.2-0.5-3.4c-0.1,0.6-0.1,1.2-0.2,1.8c-0.1,0.6-0.2,1.3-0.3,1.9l-0.2,1.3C239.6,83.6,241.1,83.6,241.1,83.6z"/>
	<path class="st2" d="M244.7,76.6h1.1l0.9,4c0.1,0.5,0.2,1,0.3,1.5s0.2,1,0.2,1.6c0-0.1,0-0.1,0-0.2s0-0.1,0-0.1l0.2-1.1l0.2-1.1   l0.1-0.7l0.8-4h1.2l0.9,9.9h-1.3l-0.2-3.4c0-0.2,0-0.3,0-0.4s0-0.2,0-0.3L249,81v-1.2c0,0,0,0,0-0.1s0-0.1,0-0.1v0.2   c0,0.2-0.1,0.4-0.1,0.6s-0.1,0.3-0.1,0.4l-0.2,0.9l-0.1,0.3l-0.8,4.3h-0.9l-0.8-3.7c-0.1-0.5-0.2-1-0.3-1.5s-0.2-1-0.2-1.6   l-0.4,6.8h-1.3L244.7,76.6z"/>
</g>
<g class="st1">
	<path class="st2" d="M259.4,76.8V78c-0.3-0.2-0.6-0.2-0.9-0.2s-0.6,0.1-0.8,0.2c-0.2,0.2-0.4,0.4-0.6,0.7s-0.3,0.7-0.3,1.2   c-0.1,0.5-0.1,1.1-0.1,1.8c0,2.4,0.6,3.7,1.9,3.7c0.2,0,0.5-0.1,0.8-0.2v1.2c-0.3,0.2-0.7,0.3-1.1,0.3c-2,0-3-1.6-3-4.9   c0-1.8,0.2-3.1,0.7-4c0.5-0.9,1.2-1.3,2.3-1.3C258.7,76.5,259,76.6,259.4,76.8z"/>
</g>
<g class="st1">
	<path class="st2" d="M265.9,81.8c0,1.8-0.2,3-0.6,3.7s-1,1.1-2,1.1s-1.6-0.4-2-1.2c-0.4-0.8-0.6-2.2-0.6-4.1c0-1.8,0.2-3,0.6-3.7   s1-1.1,2-1.1c0.8,0,1.4,0.3,1.8,0.9c0.3,0.4,0.5,0.9,0.6,1.6C265.9,79.6,265.9,80.6,265.9,81.8z M264.5,81.9c0-1.7-0.1-2.9-0.2-3.4   c-0.2-0.6-0.5-0.8-0.9-0.8c-0.5,0-0.8,0.3-1,0.8s-0.2,1.6-0.2,3.1s0.1,2.5,0.2,3c0.2,0.5,0.5,0.8,0.9,0.8s0.8-0.2,0.9-0.7   C264.4,84.2,264.5,83.3,264.5,81.9z"/>
	<path class="st2" d="M267.8,76.6h1.3v7c0,0.7,0.1,1.2,0.2,1.4c0.1,0.2,0.4,0.4,0.8,0.4s0.6-0.1,0.8-0.3c0.1-0.2,0.2-0.6,0.2-1.3   v-7.2h1.3v7.2c0,1.1-0.2,1.8-0.5,2.2c-0.4,0.4-1,0.6-1.8,0.6c-0.9,0-1.5-0.3-1.9-0.8c-0.3-0.4-0.4-1.1-0.4-2.2V76.6z"/>
	<path class="st2" d="M274.4,76.6h1.2l1.3,4c0.4,1.1,0.7,2.3,1,3.6c-0.1-0.8-0.2-1.5-0.2-2.1c-0.1-0.6-0.1-1.2-0.1-1.8v-3.7h1.3v9.9   h-1.3l-1.5-4.5c-0.1-0.4-0.3-0.8-0.4-1.3c-0.1-0.4-0.2-0.9-0.3-1.4c0-0.1,0-0.1,0-0.2s0-0.2-0.1-0.3c0,0.1,0,0.2,0,0.3   c0,0.1,0,0.1,0,0.2l0.1,1l0.1,1.2c0,0.1,0,0.2,0,0.2c0,0.1,0,0.2,0,0.3l0.1,4.3h-1.3L274.4,76.6L274.4,76.6z"/>
</g>
<g class="st1">
	<path class="st2" d="M280.2,76.6h4.3v1.2H283v8.7h-1.3v-8.7h-1.5V76.6z"/>
</g>
<g class="st1">
	<path class="st2" d="M285.6,76.6h1.4l0.7,2.2c0,0.1,0,0.1,0.1,0.2c0,0.1,0,0.2,0.1,0.3c0.2,0.8,0.4,1.4,0.5,2   c0.1-0.5,0.1-0.9,0.2-1.1l0.2-0.9l0.1-0.3l0.6-2.2h1.4l-1.7,5.7v4.3h-1.3v-4.3L285.6,76.6z"/>
	<path class="st2" d="M295.3,76.6h1.8c0.8,0,1.5,0.2,1.8,0.6c0.4,0.4,0.6,1.1,0.6,2.1c0,1.3-0.4,2.2-1.2,2.6c-0.4,0.2-1,0.3-1.7,0.3   v4.4h-1.3L295.3,76.6L295.3,76.6z M296.6,81c0.6,0,0.9-0.1,1.1-0.3c0.2-0.2,0.3-0.6,0.3-1.2s-0.1-1-0.3-1.3c-0.2-0.3-0.5-0.4-1-0.4   h-0.2V81H296.6z"/>
	<path class="st2" d="M301,76.6h1.3v7c0,0.7,0.1,1.2,0.2,1.4c0.1,0.2,0.4,0.4,0.8,0.4s0.6-0.1,0.8-0.3c0.1-0.2,0.2-0.6,0.2-1.3v-7.2   h1.3v7.2c0,1.1-0.2,1.8-0.5,2.2c-0.4,0.4-1,0.6-1.8,0.6c-0.9,0-1.5-0.3-1.9-0.8c-0.3-0.4-0.4-1.1-0.4-2.2V76.6z"/>
	<path class="st2" d="M307.6,76.6h1.8c1.4,0,2.1,0.9,2.1,2.6c0,0.7-0.1,1.2-0.3,1.5c-0.2,0.3-0.5,0.6-1,0.7c0.5,0.2,0.9,0.5,1.1,0.8   s0.3,0.8,0.3,1.5c0,1.8-0.8,2.7-2.3,2.7h-1.7V76.6z M308.8,81c0.5,0,0.9-0.1,1.1-0.4s0.3-0.7,0.3-1.3c0-1.1-0.4-1.6-1.2-1.6h0h-0.1   h-0.1V81z M308.8,85.4c0.5,0,0.9-0.1,1.1-0.4c0.2-0.2,0.3-0.7,0.3-1.3c0-0.6-0.1-1.1-0.3-1.3c-0.2-0.3-0.6-0.4-1.1-0.4V85.4z"/>
	<path class="st2" d="M313.5,76.6h1.3v8.8h2.2v1.1h-3.5V76.6z"/>
	<path class="st2" d="M318.4,76.6h1.3v9.9h-1.3V76.6z"/>
	<path class="st2" d="M325.6,76.8V78c-0.3-0.2-0.6-0.2-0.9-0.2s-0.6,0.1-0.8,0.2s-0.4,0.4-0.6,0.7s-0.3,0.7-0.3,1.2   c-0.1,0.5-0.1,1.1-0.1,1.8c0,2.4,0.6,3.7,1.9,3.7c0.2,0,0.5-0.1,0.8-0.2v1.2c-0.3,0.2-0.7,0.3-1.1,0.3c-2,0-3-1.6-3-4.9   c0-1.8,0.2-3.1,0.7-4s1.2-1.3,2.2-1.3C324.9,76.5,325.3,76.6,325.6,76.8z"/>
	<path class="st2" d="M333.8,76.8v1.3c-0.4-0.3-0.8-0.4-1.1-0.4c-0.4,0-0.6,0.1-0.9,0.4c-0.2,0.2-0.3,0.6-0.3,0.9s0.1,0.6,0.2,0.9   c0.1,0.1,0.2,0.3,0.4,0.5c0.2,0.2,0.4,0.5,0.7,0.8c0.5,0.6,0.9,1,1.1,1.4s0.3,0.9,0.3,1.4c0,0.8-0.2,1.4-0.6,1.9s-1,0.7-1.7,0.7   c-0.6,0-1.1-0.2-1.5-0.5v-1.3c0.5,0.3,0.9,0.5,1.3,0.5s0.6-0.1,0.9-0.4s0.3-0.6,0.3-1s-0.1-0.7-0.2-1c-0.1-0.1-0.2-0.3-0.3-0.5   s-0.3-0.4-0.5-0.6c-0.3-0.3-0.6-0.6-0.8-0.9c-0.2-0.3-0.4-0.5-0.5-0.7c-0.2-0.4-0.3-0.9-0.3-1.4c0-0.8,0.2-1.4,0.6-1.8   c0.4-0.5,1-0.7,1.6-0.7C332.9,76.5,333.4,76.6,333.8,76.8z"/>
	<path class="st2" d="M339.8,76.8V78c-0.3-0.2-0.6-0.2-0.9-0.2s-0.6,0.1-0.8,0.2s-0.4,0.4-0.6,0.7s-0.3,0.7-0.3,1.2   c-0.1,0.5-0.1,1.1-0.1,1.8c0,2.4,0.6,3.7,1.9,3.7c0.2,0,0.5-0.1,0.8-0.2v1.2c-0.3,0.2-0.7,0.3-1.1,0.3c-2,0-3-1.6-3-4.9   c0-1.8,0.2-3.1,0.7-4s1.2-1.3,2.2-1.3C339.1,76.5,339.5,76.6,339.8,76.8z"/>
	<path class="st2" d="M341.5,76.6h1.3v3.9h2v-3.9h1.3v9.9h-1.3v-4.9h-2v4.9h-1.3V76.6z"/>
	<path class="st2" d="M353.1,81.8c0,1.8-0.2,3-0.6,3.7s-1,1.1-2,1.1s-1.6-0.4-2-1.2c-0.4-0.8-0.6-2.2-0.6-4.1c0-1.8,0.2-3,0.6-3.7   s1-1.1,2-1.1c0.8,0,1.4,0.3,1.8,0.9c0.3,0.4,0.5,0.9,0.6,1.6C353,79.6,353.1,80.6,353.1,81.8z M351.7,81.9c0-1.7-0.1-2.9-0.2-3.4   c-0.2-0.6-0.5-0.8-0.9-0.8c-0.5,0-0.8,0.3-1,0.8s-0.2,1.6-0.2,3.1s0.1,2.5,0.2,3c0.2,0.5,0.5,0.8,0.9,0.8s0.8-0.2,0.9-0.7   C351.6,84.2,351.7,83.3,351.7,81.9z"/>
	<path class="st2" d="M359.9,81.8c0,1.8-0.2,3-0.6,3.7s-1,1.1-2,1.1s-1.6-0.4-2-1.2c-0.4-0.8-0.6-2.2-0.6-4.1c0-1.8,0.2-3,0.6-3.7   s1-1.1,2-1.1c0.8,0,1.4,0.3,1.8,0.9c0.3,0.4,0.5,0.9,0.6,1.6C359.8,79.6,359.9,80.6,359.9,81.8z M358.5,81.9c0-1.7-0.1-2.9-0.2-3.4   c-0.2-0.6-0.5-0.8-0.9-0.8c-0.5,0-0.8,0.3-1,0.8s-0.2,1.6-0.2,3.1s0.1,2.5,0.2,3c0.2,0.5,0.5,0.8,0.9,0.8s0.8-0.2,0.9-0.7   C358.4,84.2,358.5,83.3,358.5,81.9z"/>
</g>
<g class="st1">
	<path class="st2" d="M361.7,76.6h1.3v8.8h2.2v1.1h-3.5V76.6z"/>
</g>
<g class="st1">
	<path class="st2" d="M370.1,76.8v1.3c-0.4-0.3-0.8-0.4-1.1-0.4c-0.4,0-0.6,0.1-0.9,0.4c-0.2,0.2-0.3,0.6-0.3,0.9s0.1,0.6,0.2,0.9   c0.1,0.1,0.2,0.3,0.4,0.5c0.2,0.2,0.4,0.5,0.7,0.8c0.5,0.6,0.9,1,1.1,1.4s0.3,0.9,0.3,1.4c0,0.8-0.2,1.4-0.6,1.9s-1,0.7-1.7,0.7   c-0.6,0-1.1-0.2-1.5-0.5v-1.3c0.5,0.3,0.9,0.5,1.3,0.5s0.6-0.1,0.9-0.4s0.3-0.6,0.3-1s-0.1-0.7-0.2-1c-0.1-0.1-0.2-0.3-0.3-0.5   s-0.3-0.4-0.5-0.6c-0.3-0.3-0.6-0.6-0.8-0.9c-0.2-0.3-0.4-0.5-0.5-0.7c-0.2-0.4-0.3-0.9-0.3-1.4c0-0.8,0.2-1.4,0.6-1.8   c0.4-0.5,1-0.7,1.6-0.7C369.2,76.5,369.6,76.6,370.1,76.8z"/>
</g>
<g class="st1">
	<path class="st3" d="M177.6,93.6h1.6v10.7h2.7v1.4h-4.3V93.6z"/>
</g>
<g class="st1">
	<path class="st3" d="M186.7,93.6h1.3l2.6,12.1H189l-0.5-2.4h-2.4l-0.5,2.4H184L186.7,93.6z M188.3,102.1l-0.4-1.9   c-0.2-1.3-0.4-2.7-0.6-4.2c-0.1,0.7-0.2,1.5-0.3,2.2s-0.3,1.5-0.4,2.4l-0.3,1.6L188.3,102.1L188.3,102.1z"/>
	<path class="st3" d="M193,93.6h1.6v8.6c0,0.9,0.1,1.5,0.2,1.7c0.2,0.3,0.5,0.4,1,0.4s0.8-0.1,0.9-0.4c0.2-0.3,0.2-0.8,0.2-1.6v-8.8   h1.6v8.8c0,1.3-0.2,2.2-0.6,2.7c-0.5,0.5-1.2,0.8-2.2,0.8c-1.1,0-1.9-0.3-2.3-1c-0.3-0.5-0.5-1.4-0.5-2.7v-8.5H193z"/>
</g>
<g class="st1">
	<path class="st3" d="M201.9,93.6h1.5l1.6,4.8c0.5,1.4,0.9,2.8,1.2,4.4c-0.1-0.9-0.2-1.8-0.3-2.5c-0.1-0.8-0.1-1.5-0.1-2.1v-4.5h1.6   v12.1H206l-1.8-5.5c-0.2-0.5-0.3-1-0.5-1.6c-0.1-0.5-0.3-1.1-0.4-1.7c0-0.1,0-0.2-0.1-0.3c0-0.1-0.1-0.2-0.1-0.4c0,0.1,0,0.3,0,0.3   c0,0.1,0,0.2,0,0.2l0.1,1.2l0.1,1.5c0,0.1,0,0.2,0,0.3s0,0.3,0,0.4l0.1,5.3h-1.6L201.9,93.6L201.9,93.6z"/>
</g>
<g class="st1">
	<path class="st3" d="M215.6,93.8v1.5c-0.4-0.2-0.8-0.3-1.1-0.3c-0.4,0-0.7,0.1-1,0.3c-0.3,0.2-0.5,0.5-0.7,0.9s-0.3,0.9-0.4,1.5   c-0.1,0.6-0.1,1.3-0.1,2.2c0,3,0.8,4.5,2.3,4.5c0.3,0,0.6-0.1,1-0.3v1.5c-0.4,0.2-0.8,0.3-1.3,0.3c-2.5,0-3.7-2-3.7-6   c0-2.2,0.3-3.8,0.9-4.8c0.6-1.1,1.5-1.6,2.8-1.6C214.7,93.5,215.1,93.6,215.6,93.8z"/>
	<path class="st3" d="M218.4,93.6h1.6v4.7h2.4v-4.7h1.6v12.1h-1.6v-6H220v6h-1.6V93.6z"/>
	<path class="st3" d="M227.4,93.6h1.6v12.1h-1.6V93.6z"/>
	<path class="st3" d="M232.3,93.6h1.5l1.6,4.8c0.5,1.4,0.9,2.8,1.2,4.4c-0.1-0.9-0.2-1.8-0.3-2.5s-0.1-1.5-0.1-2.1v-4.5h1.6v12.1   h-1.5l-1.8-5.5c-0.2-0.5-0.3-1-0.5-1.6c-0.1-0.5-0.3-1.1-0.4-1.7c0-0.1,0-0.2-0.1-0.3c0-0.1-0.1-0.2-0.1-0.4c0,0.1,0,0.3,0,0.3   c0,0.1,0,0.2,0,0.2l0.1,1.2l0.1,1.5c0,0.1,0,0.2,0,0.3c0,0.1,0,0.3,0,0.4l0.1,5.3h-1.6V93.6H232.3z"/>
	<path class="st3" d="M244.2,99.4h3v0.5c0,2.4-0.2,4-0.6,4.8c-0.4,0.8-1.2,1.3-2.3,1.3c-1.2,0-2-0.5-2.5-1.4s-0.7-2.5-0.7-4.8   c0-2.5,0.3-4.2,0.8-5.1c0.5-0.8,1.3-1.2,2.3-1.2c0.8,0,1.4,0.2,1.9,0.6s0.8,1,1.1,1.9l-1.5,0.6c-0.1-0.3-0.1-0.6-0.2-0.8   c-0.1-0.2-0.2-0.4-0.3-0.5c-0.2-0.2-0.5-0.4-0.9-0.4c-0.5,0-0.9,0.3-1.1,1c-0.2,0.7-0.3,2-0.3,3.8s0.1,3.1,0.3,3.7s0.6,1,1.2,1   c0.5,0,0.9-0.2,1.1-0.7c0.2-0.5,0.3-1.3,0.3-2.4V101v-0.2h-1.4v-1.4H244.2z"/>
	<path class="st3" d="M254.1,93.6h5.3V95h-1.8v10.7H256V95.1h-1.9V93.6z"/>
	<path class="st3" d="M261.7,93.6h1.6v4.7h2.4v-4.7h1.6v12.1h-1.6v-6h-2.4v6h-1.6V93.6z"/>
	<path class="st3" d="M270.7,93.6h2.2c0.9,0,1.6,0.2,2,0.6c0.5,0.5,0.8,1.4,0.8,2.5c0,0.9-0.1,1.6-0.4,2.1s-0.7,0.9-1.2,1l2.2,5.9   h-1.7l-2.2-5.9v5.9h-1.6L270.7,93.6L270.7,93.6z M272.3,99c0.6,0,1.1-0.1,1.3-0.4c0.3-0.3,0.4-0.8,0.4-1.5c0-0.4,0-0.7-0.1-1   s-0.1-0.5-0.3-0.7c-0.1-0.2-0.3-0.3-0.5-0.4s-0.4-0.1-0.7-0.1h-0.3V99H272.3z"/>
	<path class="st3" d="M278.9,93.6h1.6v12.1h-1.6V93.6z"/>
	<path class="st3" d="M282.9,93.6h1.6l0.7,4.5l0.1,0.8l0.3,1.8c0,0.3,0.1,0.6,0.1,0.8s0.1,0.5,0.1,0.7l0.1,0.6c0-0.1,0-0.2,0-0.3   c0-0.1,0-0.2,0-0.2l0.2-1.4l0.3-1.8c0-0.2,0.1-0.3,0.1-0.5s0-0.3,0.1-0.4l0.8-4.5h1.5l-2.4,12.1h-1.3L282.9,93.6z"/>
	<path class="st3" d="M291.3,93.6h1.6v12.1h-1.6V93.6z"/>
	<path class="st3" d="M296.2,93.6h1.5l1.6,4.8c0.5,1.4,0.9,2.8,1.2,4.4c-0.1-0.9-0.2-1.8-0.3-2.5c-0.1-0.8-0.1-1.5-0.1-2.1v-4.5h1.6   v12.1h-1.5l-1.8-5.5c-0.2-0.5-0.3-1-0.5-1.6c-0.1-0.5-0.3-1.1-0.4-1.7c0-0.1,0-0.2-0.1-0.3c0-0.1-0.1-0.2-0.1-0.4   c0,0.1,0,0.3,0,0.3c0,0.1,0,0.2,0,0.2l0.1,1.2l0.1,1.5c0,0.1,0,0.2,0,0.3s0,0.3,0,0.4l0.1,5.3H296V93.6H296.2z"/>
	<path class="st3" d="M308.1,99.4h3v0.5c0,2.4-0.2,4-0.6,4.8s-1.2,1.3-2.3,1.3c-1.2,0-2-0.5-2.5-1.4s-0.7-2.5-0.7-4.8   c0-2.5,0.3-4.2,0.8-5.1c0.5-0.8,1.3-1.2,2.3-1.2c0.8,0,1.4,0.2,1.9,0.6s0.8,1,1.1,1.9l-1.5,0.6c-0.1-0.3-0.1-0.6-0.2-0.8   c-0.1-0.2-0.2-0.4-0.3-0.5c-0.2-0.2-0.5-0.4-0.9-0.4c-0.5,0-0.9,0.3-1.1,1s-0.3,2-0.3,3.8s0.1,3.1,0.3,3.7c0.2,0.6,0.6,1,1.2,1   c0.5,0,0.9-0.2,1.1-0.7s0.3-1.3,0.3-2.4V101v-0.2h-1.4v-1.4H308.1z"/>
	<path class="st3" d="M318.9,93.6h4.4V95h-2.7v3.8h2.5v1.4h-2.5v5.5H319L318.9,93.6L318.9,93.6z"/>
	<path class="st3" d="M326,93.6h1.6v8.6c0,0.9,0.1,1.5,0.2,1.7c0.2,0.3,0.5,0.4,1,0.4s0.8-0.1,0.9-0.4c0.2-0.3,0.2-0.8,0.2-1.6v-8.8   h1.6v8.8c0,1.3-0.2,2.2-0.6,2.7c-0.5,0.5-1.2,0.8-2.2,0.8c-1.1,0-1.9-0.3-2.3-1c-0.3-0.5-0.5-1.4-0.5-2.7L326,93.6L326,93.6z"/>
	<path class="st3" d="M333.9,93.6h5.3V95h-1.8v10.7h-1.6V95.1h-1.9V93.6z"/>
	<path class="st3" d="M341.6,93.6h1.6v8.6c0,0.9,0.1,1.5,0.2,1.7c0.2,0.3,0.5,0.4,1,0.4s0.8-0.1,0.9-0.4c0.2-0.3,0.2-0.8,0.2-1.6   v-8.8h1.6v8.8c0,1.3-0.2,2.2-0.6,2.7c-0.5,0.5-1.2,0.8-2.2,0.8c-1.1,0-1.9-0.3-2.3-1c-0.3-0.5-0.5-1.4-0.5-2.7L341.6,93.6   L341.6,93.6z"/>
	<path class="st3" d="M350.4,93.6h2.2c0.9,0,1.6,0.2,2,0.6c0.5,0.5,0.8,1.4,0.8,2.5c0,0.9-0.1,1.6-0.4,2.1s-0.7,0.9-1.2,1l2.2,5.9   h-1.7l-2.2-5.9v5.9h-1.6L350.4,93.6L350.4,93.6z M352.1,99c0.6,0,1.1-0.1,1.3-0.4c0.3-0.3,0.4-0.8,0.4-1.5c0-0.4,0-0.7-0.1-1   s-0.1-0.5-0.3-0.7c-0.1-0.2-0.3-0.3-0.5-0.4s-0.4-0.1-0.7-0.1h-0.3V99H352.1z"/>
	<path class="st3" d="M358.7,93.6h4.3V95h-2.7v3.8h2.4v1.4h-2.4v4.1h2.7v1.4h-4.3V93.6z"/>
	<path class="st3" d="M370,93.9v1.6c-0.5-0.4-0.9-0.5-1.3-0.5s-0.8,0.2-1.1,0.5c-0.3,0.3-0.4,0.7-0.4,1.2c0,0.4,0.1,0.8,0.3,1.1   c0.1,0.2,0.3,0.4,0.5,0.6s0.5,0.6,0.9,0.9c0.7,0.7,1.1,1.3,1.4,1.8c0.2,0.5,0.4,1.1,0.4,1.8c0,0.9-0.3,1.7-0.8,2.3   c-0.5,0.6-1.2,0.9-2,0.9c-0.7,0-1.3-0.2-1.8-0.6v-1.6c0.6,0.4,1.1,0.6,1.6,0.6c0.4,0,0.8-0.1,1-0.4c0.3-0.3,0.4-0.7,0.4-1.2   c0-0.4-0.1-0.8-0.3-1.2c-0.1-0.2-0.2-0.4-0.4-0.6c-0.2-0.2-0.4-0.5-0.7-0.7c-0.4-0.4-0.8-0.8-1-1.1c-0.3-0.3-0.5-0.6-0.6-0.8   c-0.3-0.5-0.4-1-0.4-1.7c0-0.9,0.2-1.7,0.7-2.3c0.5-0.6,1.2-0.8,2-0.8C368.9,93.5,369.5,93.6,370,93.9z"/>
</g>
<g>
	<g>
		<path class="st2" d="M35.5,35.4l15.3,9.4c0,0,20.4,11.5,47.8-2.8c27.5-14.2,38-27.5,38-27.5L113.7,6L35.5,35.4z"/>
		<path class="st2" d="M140.6,16.1l54.2,20.1l-81.3,41.4L78.8,59.9c0,0,13.1-1.8,31.8-16S140.6,16.1,140.6,16.1L140.6,16.1z"/>
		<path class="st2" d="M113.3,82.8L74.2,62.3c-0.4,1.8-0.6,3.7-0.6,5.6c0,18.7,17.9,33.8,40,33.8s40-15.2,40-33.8    c0-1.8-0.2-3.6-0.5-5.4L113.3,82.8L113.3,82.8z"/>
		<path class="st2" d="M113.7,104.4c-21.7,0-39.4-14.5-40.4-32.6c0,0.5-0.1,1-0.1,1.6c0,18.9,18.1,34.2,40.4,34.2S154,92.3,154,73.4    c0-0.5,0-1.1-0.1-1.6C153.1,89.9,135.4,104.4,113.7,104.4L113.7,104.4z"/>
	</g>
	<g>
		<polygon class="st4" points="144,0.4 145.5,5 150.3,5.1 146.5,7.9 147.9,12.6 144,9.7 140.1,12.6 141.5,7.9 137.6,5.1 142.4,5       "/>
		<g>
			<path class="st4" d="M54.7,53c-0.2-0.2-0.5-0.4-0.8-0.4c-13.3,0-25.7-6.7-33.1-17.8c-0.4-0.5-1-0.7-1.6-0.3     c-0.5,0.3-0.7,1-0.3,1.6c1.8,2.8,4,5.3,6.3,7.5c-4.2-3-8-6.7-11.2-11c-0.4-0.5-1.1-0.6-1.6-0.2c-0.5,0.4-0.6,1.1-0.2,1.6     c3.6,4.8,7.8,8.8,12.5,12c8.9,4.3,18.8,6.8,29.3,7C54.2,53,54.4,53,54.7,53L54.7,53z"/>
			<path class="st4" d="M118.3,34c-8.2,6.3-17.3,11.5-26.9,15.5l0,0c-0.5,0.2-0.9,0.4-1.4,0.6c-8.3,3-16.7,5-28.8,5.5     c-19.1,0.8-38.3-6-52.8-16.2c-0.8-0.7-1.9-1.1-3-1.1c-2.6,0-4.7,2.1-4.7,4.7c0,1.5,0.7,2.9,1.9,3.8l0,0     c11.3,8.3,25.2,13.3,40.2,13.6c1.1,0,2.2,0,3.2,0c-2.2,0.1-4.4,0.2-6.6,0.2C26.7,60.6,14.1,58.7,2,55c-0.6-0.2-1.2,0.2-1.4,0.8     s0.1,1.2,0.8,1.4c12.3,3.8,25.1,5.7,38.1,5.7c14.1,0,28-2.3,41.1-6.7l0,0C94.5,51.1,107.3,43.6,118.3,34L118.3,34z"/>
		</g>
	</g>
</g>
</svg>